<svg width="256" height="177" viewBox="0 0 256 177" fill="none" xmlns="http://www.w3.org/2000/svg">
<path d="M104.992 60.8602C91.4036 63.3586 81.6549 62.8311 80.2322 58.8213C77.9895 52.5001 97.287 39.9188 123.334 30.7201C149.382 21.5214 172.315 19.1887 174.558 25.5099C175.989 29.5443 168.646 36.1288 156.374 42.7564" stroke="#364D9D" stroke-width="2"/>
<ellipse cx="126.627" cy="41.1273" rx="30.4239" ry="30.3534" fill="#364D9D"/>
<path fill-rule="evenodd" clip-rule="evenodd" d="M112.429 31.868C112.429 30.6489 113.419 29.6605 114.641 29.6605H138.98C140.202 29.6605 141.193 30.6489 141.193 31.868V51.7357C141.193 52.9549 140.202 53.9432 138.98 53.9432H114.641C113.419 53.9432 112.429 52.9549 112.429 51.7357V31.868ZM138.98 31.868H114.641V51.7357H138.98V31.868Z" fill="#EDECEE"/>
<path fill-rule="evenodd" clip-rule="evenodd" d="M112.429 35.1793C112.429 34.5697 112.924 34.0756 113.535 34.0756H140.087C140.698 34.0756 141.193 34.5697 141.193 35.1793C141.193 35.7889 140.698 36.2831 140.087 36.2831H113.535C112.924 36.2831 112.429 35.7889 112.429 35.1793Z" fill="#EDECEE"/>
<path fill-rule="evenodd" clip-rule="evenodd" d="M121.279 38.4906C121.89 38.4906 122.386 38.9848 122.386 39.5944C122.386 40.7653 122.852 41.8883 123.682 42.7163C124.512 43.5442 125.637 44.0094 126.811 44.0094C127.984 44.0094 129.11 43.5442 129.94 42.7163C130.77 41.8883 131.236 40.7653 131.236 39.5944C131.236 38.9848 131.731 38.4906 132.342 38.4906C132.953 38.4906 133.449 38.9848 133.449 39.5944C133.449 41.3508 132.749 43.0352 131.505 44.2772C130.26 45.5192 128.571 46.2169 126.811 46.2169C125.05 46.2169 123.362 45.5192 122.117 44.2772C120.872 43.0352 120.173 41.3508 120.173 39.5944C120.173 38.9848 120.668 38.4906 121.279 38.4906Z" fill="#EDECEE"/>
<path d="M104.991 60.8601C107.284 60.4386 109.686 59.9309 112.175 59.3393M156.374 42.7563C154.062 44.0052 151.574 45.2556 148.937 46.4908" stroke="#F7F7F8" stroke-width="2"/>
<path d="M0.749847 142.682C0.249949 142.682 0 142.431 0 141.929V121.21C0 120.736 0.194405 120.498 0.583215 120.498H4.70738C5.09619 120.498 5.29059 120.708 5.29059 121.126V123.303C5.29059 123.47 5.33225 123.582 5.41556 123.638C5.49888 123.666 5.60997 123.61 5.74883 123.47C6.52645 122.773 7.2763 122.173 7.99837 121.67C8.74822 121.168 9.51195 120.777 10.2896 120.498C11.095 120.192 11.942 120.038 12.8307 120.038C14.386 120.038 15.6635 120.401 16.6633 121.126C17.6631 121.852 18.3574 122.773 18.7462 123.889C18.8017 124 18.885 124.042 18.9961 124.014C19.1072 123.986 19.2183 123.917 19.3294 123.805C20.0515 123.08 20.8152 122.438 21.6206 121.88C22.426 121.322 23.2592 120.889 24.1201 120.582C24.981 120.247 25.842 120.08 26.7029 120.08C28.6747 120.08 30.23 120.68 31.3686 121.88C32.5073 123.052 33.0766 124.656 33.0766 126.693V141.803C33.0766 142.389 32.785 142.682 32.2018 142.682H28.3692C28.1193 142.682 27.9388 142.626 27.8277 142.515C27.7166 142.403 27.661 142.208 27.661 141.929V127.53C27.661 126.442 27.3833 125.605 26.8279 125.019C26.3002 124.405 25.4948 124.098 24.4117 124.098C23.7729 124.098 23.162 124.224 22.5787 124.475C21.9955 124.698 21.4679 124.991 20.9957 125.354C20.5236 125.716 20.107 126.079 19.746 126.442C19.5516 126.637 19.4127 126.833 19.3294 127.028C19.2739 127.195 19.2461 127.405 19.2461 127.656V141.803C19.2461 142.389 18.9545 142.682 18.3713 142.682H14.5387C14.3165 142.682 14.136 142.626 13.9972 142.515C13.8861 142.403 13.8305 142.208 13.8305 141.929V127.53C13.8305 126.442 13.5667 125.605 13.039 125.019C12.5113 124.405 11.6921 124.098 10.5812 124.098C9.63693 124.098 8.76211 124.335 7.95672 124.81C7.1791 125.284 6.33205 125.996 5.41556 126.944V141.845C5.41556 142.403 5.09619 142.682 4.45743 142.682H0.749847Z" fill="#1A181B"/>
<path d="M50.2424 140.38C49.2981 141.217 48.2706 141.887 47.1597 142.389C46.0488 142.863 44.7852 143.101 43.3688 143.101C41.2303 143.101 39.5501 142.543 38.3281 141.426C37.1339 140.282 36.5368 138.803 36.5368 136.99C36.5368 135.455 36.9951 134.13 37.9116 133.013C38.828 131.869 40.1611 130.976 41.9107 130.335C43.6604 129.693 45.7572 129.316 48.2011 129.204L50.284 129.079C50.4507 129.051 50.6034 128.995 50.7423 128.912C50.8811 128.828 50.9506 128.674 50.9506 128.451V127.488C50.9506 126.261 50.5895 125.312 49.8675 124.642C49.1454 123.945 48.1456 123.596 46.8681 123.596C45.896 123.596 44.9796 123.819 44.1186 124.265C43.2855 124.684 42.5634 125.382 41.9524 126.358C41.8691 126.526 41.7719 126.637 41.6608 126.693C41.5775 126.749 41.4108 126.749 41.1609 126.693L37.6616 125.814C37.5227 125.758 37.4117 125.675 37.3283 125.563C37.2728 125.451 37.3283 125.228 37.495 124.893C38.2448 123.303 39.4251 122.103 41.0359 121.294C42.6745 120.485 44.7018 120.08 47.118 120.08C49.2565 120.08 50.9783 120.373 52.2836 120.959C53.6167 121.545 54.5887 122.368 55.1997 123.428C55.8107 124.461 56.1162 125.689 56.1162 127.112V141.845C56.1162 142.152 56.0606 142.375 55.9496 142.515C55.8662 142.626 55.6857 142.682 55.408 142.682H51.8671C51.6171 142.682 51.4366 142.584 51.3255 142.389C51.2144 142.194 51.145 141.957 51.1172 141.678L51.0339 140.422C50.9783 139.948 50.7145 139.934 50.2424 140.38ZM50.9506 132.553C50.9506 132.051 50.7423 131.814 50.3257 131.841L48.6177 131.967C47.729 132.023 46.8681 132.162 46.0349 132.386C45.2295 132.581 44.5074 132.86 43.8687 133.223C43.2577 133.558 42.7578 133.99 42.369 134.52C42.008 135.022 41.8274 135.622 41.8274 136.32C41.8274 137.269 42.1607 138.022 42.8272 138.58C43.5215 139.138 44.4519 139.417 45.6183 139.417C46.3682 139.417 47.0625 139.292 47.7012 139.041C48.34 138.79 48.8954 138.469 49.3676 138.078C49.8397 137.687 50.2146 137.283 50.4923 136.864C50.7978 136.418 50.9506 135.971 50.9506 135.525V132.553Z" fill="#1A181B"/>
<path d="M62.0574 142.682C61.7796 142.682 61.5852 142.626 61.4741 142.515C61.3631 142.375 61.3075 142.18 61.3075 141.929V121.21C61.3075 120.736 61.5019 120.498 61.8907 120.498H65.9316C66.3204 120.498 66.5148 120.708 66.5148 121.126V123.68C66.5148 123.847 66.5703 123.959 66.6814 124.014C66.7925 124.042 66.9175 123.973 67.0563 123.805C67.6673 122.996 68.32 122.326 69.0143 121.796C69.7364 121.238 70.4584 120.819 71.1805 120.54C71.9304 120.233 72.6524 120.08 73.3467 120.08C74.3465 120.08 74.8464 120.303 74.8464 120.75V124.768C74.8464 125.158 74.6659 125.326 74.3049 125.27C73.8883 125.158 73.4439 125.089 72.9718 125.061C72.5275 125.005 72.1109 124.977 71.7221 124.977C71.1944 124.977 70.6251 125.089 70.0141 125.312C69.4309 125.535 68.8893 125.856 68.3894 126.275C67.8895 126.665 67.4868 127.098 67.1813 127.572C66.8758 128.046 66.7231 128.535 66.7231 129.037V141.845C66.7231 142.403 66.4037 142.682 65.7649 142.682H62.0574Z" fill="#1A181B"/>
<path d="M99.3886 141.803C99.5275 141.998 99.5553 142.194 99.472 142.389C99.3886 142.584 99.1942 142.682 98.8887 142.682H94.3063C94.0564 142.682 93.8481 142.626 93.6815 142.515C93.5426 142.375 93.4176 142.18 93.3065 141.929L88.3076 132.553C88.2242 132.358 88.1409 132.246 88.0576 132.218C87.9743 132.19 87.8493 132.26 87.6827 132.427L84.2251 135.86C84.114 135.971 84.0168 136.097 83.9334 136.236C83.8779 136.376 83.8501 136.571 83.8501 136.822V141.761C83.8501 142.096 83.7807 142.333 83.6418 142.473C83.503 142.612 83.253 142.682 82.892 142.682H79.2677C78.9345 142.682 78.7123 142.626 78.6012 142.515C78.4901 142.375 78.4346 142.18 78.4346 141.929V112.337C78.4346 111.862 78.6429 111.625 79.0594 111.625H83.2669C83.6557 111.625 83.8501 111.848 83.8501 112.295V130.251C83.8501 130.418 83.8918 130.53 83.9751 130.586C84.0584 130.642 84.1834 130.572 84.35 130.376L93.0149 121.084C93.4037 120.694 93.7509 120.498 94.0564 120.498H97.8473C98.2083 120.498 98.4166 120.596 98.4722 120.791C98.5555 120.987 98.4722 121.21 98.2222 121.461L92.0985 127.656C91.9874 127.795 91.9179 127.935 91.8902 128.074C91.8624 128.214 91.9179 128.423 92.0568 128.702L99.3886 141.803Z" fill="#1A181B"/>
<path d="M106 133.306C106 134.45 106.264 135.483 106.792 136.404C107.319 137.297 108.041 138.008 108.958 138.538C109.902 139.041 110.93 139.292 112.041 139.292C113.179 139.292 114.207 139.055 115.123 138.58C116.068 138.106 116.956 137.338 117.79 136.278C117.901 136.139 117.998 136.069 118.081 136.069C118.164 136.041 118.303 136.083 118.498 136.194L121.039 137.325C121.4 137.492 121.442 137.743 121.164 138.078C120.331 139.306 119.428 140.296 118.456 141.05C117.512 141.775 116.456 142.305 115.29 142.64C114.151 142.947 112.86 143.101 111.416 143.101C109.305 143.101 107.417 142.626 105.75 141.678C104.084 140.729 102.765 139.417 101.793 137.743C100.849 136.041 100.376 134.088 100.376 131.883C100.376 129.456 100.862 127.363 101.834 125.605C102.834 123.847 104.167 122.494 105.834 121.545C107.5 120.568 109.333 120.08 111.332 120.08C113.443 120.08 115.276 120.54 116.831 121.461C118.414 122.382 119.65 123.707 120.539 125.437C121.428 127.14 121.872 129.218 121.872 131.674C121.872 131.953 121.844 132.176 121.789 132.344C121.761 132.511 121.567 132.609 121.205 132.637H106.458C106.292 132.637 106.167 132.692 106.084 132.804C106.028 132.916 106 133.083 106 133.306ZM115.873 129.539C116.151 129.539 116.331 129.511 116.415 129.456C116.526 129.372 116.581 129.204 116.581 128.953C116.581 128.088 116.387 127.237 115.998 126.4C115.609 125.563 115.04 124.879 114.29 124.349C113.54 123.791 112.624 123.512 111.541 123.512C110.43 123.512 109.458 123.791 108.625 124.349C107.792 124.879 107.153 125.605 106.708 126.526C106.292 127.419 106.084 128.423 106.084 129.539H115.873Z" fill="#1A181B"/>
<path d="M133.382 124.307C133.104 124.307 132.965 124.461 132.965 124.768V135.943C132.965 137.032 133.187 137.785 133.632 138.204C134.076 138.622 134.77 138.831 135.715 138.831H138.172C138.339 138.831 138.478 138.887 138.589 138.999C138.7 139.11 138.756 139.25 138.756 139.417L138.714 141.594C138.714 142.04 138.45 142.319 137.922 142.431C137.506 142.487 137.02 142.543 136.464 142.598C135.909 142.626 135.354 142.654 134.798 142.682C134.27 142.682 133.784 142.682 133.34 142.682C131.479 142.682 130.049 142.25 129.049 141.385C128.049 140.492 127.55 139.152 127.55 137.366V124.851C127.55 124.489 127.383 124.307 127.05 124.307H124.259C123.814 124.307 123.592 124.098 123.592 123.68V121.043C123.592 120.68 123.8 120.498 124.217 120.498H127.3C127.55 120.498 127.675 120.359 127.675 120.08L128.216 113.634C128.244 113.188 128.438 112.964 128.799 112.964H132.507C132.896 112.964 133.09 113.202 133.09 113.676V120.08C133.09 120.331 133.215 120.457 133.465 120.457H138.172C138.589 120.457 138.797 120.652 138.797 121.043V123.68C138.797 124.098 138.561 124.307 138.089 124.307H133.382Z" fill="#1A181B"/>
<path d="M156.168 125.982C155.641 125.284 154.946 124.698 154.086 124.224C153.225 123.749 152.169 123.512 150.919 123.512C149.725 123.512 148.725 123.749 147.92 124.224C147.115 124.698 146.712 125.368 146.712 126.233C146.712 126.651 146.879 127.056 147.212 127.447C147.545 127.837 148.281 128.186 149.42 128.493L154.377 129.832C156.543 130.363 158.085 131.2 159.001 132.344C159.945 133.46 160.418 134.729 160.418 136.153C160.418 137.604 160.001 138.845 159.168 139.878C158.362 140.91 157.224 141.705 155.752 142.264C154.308 142.822 152.655 143.101 150.795 143.101C148.406 143.101 146.365 142.668 144.671 141.803C142.977 140.91 141.782 139.808 141.088 138.497C141.005 138.329 140.963 138.176 140.963 138.036C140.963 137.869 141.033 137.729 141.171 137.618L143.629 136.362C143.851 136.222 144.032 136.167 144.171 136.194C144.31 136.222 144.421 136.292 144.504 136.404C144.921 136.99 145.393 137.52 145.921 137.994C146.476 138.469 147.142 138.845 147.92 139.124C148.725 139.403 149.698 139.529 150.836 139.501C151.697 139.501 152.475 139.389 153.169 139.166C153.891 138.943 154.46 138.636 154.877 138.245C155.294 137.827 155.502 137.325 155.502 136.739C155.502 136.18 155.266 135.692 154.794 135.274C154.322 134.855 153.475 134.492 152.253 134.185L148.003 133.181C145.893 132.679 144.337 131.925 143.338 130.921C142.366 129.916 141.88 128.66 141.88 127.154C141.88 125.758 142.241 124.531 142.963 123.47C143.713 122.41 144.768 121.587 146.129 121.001C147.49 120.387 149.1 120.08 150.961 120.08C153.016 120.08 154.794 120.457 156.293 121.21C157.793 121.963 158.89 122.898 159.584 124.014C159.695 124.154 159.765 124.307 159.793 124.475C159.848 124.642 159.779 124.782 159.584 124.893L157.002 126.191C156.835 126.275 156.682 126.302 156.543 126.275C156.404 126.219 156.28 126.121 156.168 125.982Z" fill="#1A181B"/>
<path d="M169.141 120.498C169.669 120.498 169.933 120.75 169.933 121.252V122.675C169.933 122.87 169.988 122.982 170.1 123.01C170.211 123.01 170.336 122.94 170.474 122.801C170.891 122.41 171.363 122.005 171.891 121.587C172.446 121.168 173.113 120.819 173.89 120.54C174.668 120.233 175.612 120.08 176.723 120.08C178.389 120.08 179.875 120.498 181.181 121.336C182.486 122.145 183.527 123.387 184.305 125.061C185.083 126.707 185.471 128.8 185.471 131.339C185.471 133.962 185.083 136.153 184.305 137.911C183.527 139.641 182.444 140.938 181.056 141.803C179.695 142.668 178.126 143.101 176.348 143.101C175.21 143.101 174.168 142.919 173.224 142.557C172.28 142.194 171.433 141.664 170.683 140.966C170.405 140.715 170.211 140.603 170.1 140.631C169.988 140.659 169.933 140.854 169.933 141.217V148.919C169.933 149.365 169.738 149.588 169.35 149.588H165.101C164.712 149.588 164.517 149.365 164.517 148.919V121.336C164.517 121.029 164.573 120.819 164.684 120.708C164.795 120.568 165.017 120.498 165.35 120.498H169.141ZM169.933 137.241C170.572 137.938 171.252 138.497 171.974 138.915C172.724 139.334 173.557 139.543 174.474 139.543C175.585 139.543 176.543 139.264 177.348 138.706C178.181 138.12 178.82 137.227 179.264 136.027C179.736 134.799 179.973 133.223 179.973 131.297C179.973 129.4 179.736 127.893 179.264 126.777C178.82 125.661 178.181 124.865 177.348 124.391C176.543 123.889 175.64 123.638 174.64 123.638C173.724 123.638 172.905 123.833 172.182 124.224C171.488 124.586 170.933 125.061 170.516 125.647C170.127 126.233 169.933 126.847 169.933 127.488V137.241Z" fill="#1A181B"/>
<path d="M201.904 140.38C200.96 141.217 199.932 141.887 198.822 142.389C197.711 142.863 196.447 143.101 195.031 143.101C192.892 143.101 191.212 142.543 189.99 141.426C188.796 140.282 188.199 138.803 188.199 136.99C188.199 135.455 188.657 134.13 189.573 133.013C190.49 131.869 191.823 130.976 193.573 130.335C195.322 129.693 197.419 129.316 199.863 129.204L201.946 129.079C202.113 129.051 202.265 128.995 202.404 128.912C202.543 128.828 202.612 128.674 202.612 128.451V127.488C202.612 126.261 202.251 125.312 201.529 124.642C200.807 123.945 199.807 123.596 198.53 123.596C197.558 123.596 196.641 123.819 195.78 124.265C194.947 124.684 194.225 125.382 193.614 126.358C193.531 126.526 193.434 126.637 193.323 126.693C193.239 126.749 193.073 126.749 192.823 126.693L189.323 125.814C189.185 125.758 189.074 125.675 188.99 125.563C188.935 125.451 188.99 125.228 189.157 124.893C189.907 123.303 191.087 122.103 192.698 121.294C194.336 120.485 196.364 120.08 198.78 120.08C200.918 120.08 202.64 120.373 203.945 120.959C205.279 121.545 206.251 122.368 206.862 123.428C207.473 124.461 207.778 125.689 207.778 127.112V141.845C207.778 142.152 207.723 142.375 207.611 142.515C207.528 142.626 207.348 142.682 207.07 142.682H203.529C203.279 142.682 203.098 142.584 202.987 142.389C202.876 142.194 202.807 141.957 202.779 141.678L202.696 140.422C202.64 139.948 202.376 139.934 201.904 140.38ZM202.612 132.553C202.612 132.051 202.404 131.814 201.988 131.841L200.28 131.967C199.391 132.023 198.53 132.162 197.697 132.386C196.891 132.581 196.169 132.86 195.531 133.223C194.92 133.558 194.42 133.99 194.031 134.52C193.67 135.022 193.489 135.622 193.489 136.32C193.489 137.269 193.823 138.022 194.489 138.58C195.183 139.138 196.114 139.417 197.28 139.417C198.03 139.417 198.724 139.292 199.363 139.041C200.002 138.79 200.557 138.469 201.029 138.078C201.502 137.687 201.876 137.283 202.154 136.864C202.46 136.418 202.612 135.971 202.612 135.525V132.553Z" fill="#1A181B"/>
<path d="M222.717 120.08C224.384 120.08 225.828 120.373 227.05 120.959C228.272 121.517 229.272 122.256 230.049 123.177C230.855 124.07 231.466 125.019 231.882 126.023C232.049 126.526 231.91 126.791 231.466 126.819L227.8 127.279C227.522 127.335 227.328 127.209 227.216 126.902C226.855 126.289 226.481 125.744 226.092 125.27C225.703 124.796 225.259 124.419 224.759 124.14C224.259 123.861 223.648 123.721 222.926 123.721C221.815 123.721 220.829 124.028 219.968 124.642C219.135 125.228 218.482 126.107 218.01 127.279C217.566 128.451 217.343 129.888 217.343 131.59C217.343 133.32 217.58 134.771 218.052 135.943C218.552 137.115 219.232 138.008 220.093 138.622C220.954 139.208 221.981 139.501 223.176 139.501C224.425 139.501 225.453 139.18 226.258 138.538C227.064 137.869 227.814 136.948 228.508 135.776C228.591 135.664 228.675 135.594 228.758 135.567C228.841 135.539 228.98 135.553 229.174 135.608L231.799 136.32C232.077 136.404 232.16 136.641 232.049 137.032C231.771 137.673 231.368 138.357 230.841 139.082C230.341 139.808 229.716 140.478 228.966 141.092C228.216 141.678 227.314 142.166 226.258 142.557C225.231 142.919 224.05 143.101 222.717 143.101C220.607 143.101 218.732 142.626 217.094 141.678C215.455 140.701 214.164 139.362 213.219 137.659C212.303 135.929 211.845 133.934 211.845 131.674C211.845 129.386 212.317 127.377 213.261 125.647C214.205 123.889 215.497 122.521 217.135 121.545C218.774 120.568 220.634 120.08 222.717 120.08Z" fill="#1A181B"/>
<path d="M240.128 133.306C240.128 134.45 240.392 135.483 240.92 136.404C241.447 137.297 242.169 138.008 243.086 138.538C244.03 139.041 245.058 139.292 246.169 139.292C247.307 139.292 248.335 139.055 249.251 138.58C250.196 138.106 251.084 137.338 251.917 136.278C252.029 136.139 252.126 136.069 252.209 136.069C252.292 136.041 252.431 136.083 252.626 136.194L255.167 137.325C255.528 137.492 255.57 137.743 255.292 138.078C254.459 139.306 253.556 140.296 252.584 141.05C251.64 141.775 250.584 142.305 249.418 142.64C248.279 142.947 246.988 143.101 245.544 143.101C243.433 143.101 241.545 142.626 239.878 141.678C238.212 140.729 236.893 139.417 235.921 137.743C234.977 136.041 234.504 134.088 234.504 131.883C234.504 129.456 234.99 127.363 235.962 125.605C236.962 123.847 238.295 122.494 239.962 121.545C241.628 120.568 243.461 120.08 245.46 120.08C247.571 120.08 249.404 120.54 250.959 121.461C252.542 122.382 253.778 123.707 254.667 125.437C255.556 127.14 256 129.218 256 131.674C256 131.953 255.972 132.176 255.917 132.344C255.889 132.511 255.695 132.609 255.333 132.637H240.586C240.42 132.637 240.295 132.692 240.212 132.804C240.156 132.916 240.128 133.083 240.128 133.306ZM250.001 129.539C250.279 129.539 250.459 129.511 250.543 129.456C250.654 129.372 250.709 129.204 250.709 128.953C250.709 128.088 250.515 127.237 250.126 126.4C249.737 125.563 249.168 124.879 248.418 124.349C247.668 123.791 246.752 123.512 245.669 123.512C244.558 123.512 243.586 123.791 242.753 124.349C241.92 124.879 241.281 125.605 240.836 126.526C240.42 127.419 240.212 128.423 240.212 129.539H250.001Z" fill="#1A181B"/>
<path d="M35.9342 166.408C35.3695 166.408 34.8515 166.305 34.3802 166.1C33.9089 165.89 33.5309 165.586 33.2462 165.19C32.9615 164.788 32.8192 164.301 32.8192 163.727H33.6032C33.6032 164.165 33.7105 164.527 33.9252 164.812C34.1399 165.096 34.4222 165.309 34.7722 165.449C35.1269 165.584 35.5095 165.652 35.9202 165.652C36.3915 165.652 36.7952 165.575 37.1312 165.421C37.4672 165.262 37.7239 165.057 37.9012 164.805C38.0832 164.553 38.1742 164.284 38.1742 164C38.1742 163.589 38.0482 163.255 37.7962 162.999C37.5489 162.737 37.1895 162.534 36.7182 162.39L35.2832 161.928C34.5412 161.671 33.9835 161.382 33.6102 161.06C33.2369 160.738 33.0502 160.283 33.0502 159.695C33.0502 159.041 33.2975 158.507 33.7922 158.092C34.2869 157.676 34.9985 157.469 35.9272 157.469C36.7625 157.469 37.4182 157.66 37.8942 158.043C38.3749 158.425 38.6525 158.927 38.7272 159.548H37.9222C37.8475 159.118 37.6422 158.789 37.3062 158.561C36.9749 158.327 36.5152 158.211 35.9272 158.211C35.2925 158.211 34.8002 158.355 34.4502 158.645C34.1049 158.929 33.9322 159.293 33.9322 159.737C33.9322 160.096 34.0419 160.381 34.2612 160.591C34.4805 160.796 34.8259 160.978 35.2972 161.137L37.0332 161.697C37.6399 161.883 38.1275 162.161 38.4962 162.53C38.8695 162.894 39.0562 163.379 39.0562 163.986C39.0562 164.41 38.9372 164.807 38.6992 165.176C38.4612 165.544 38.1112 165.843 37.6492 166.072C37.1872 166.296 36.6155 166.408 35.9342 166.408ZM43.7447 166.408C43.166 166.408 42.655 166.261 42.2117 165.967C41.773 165.668 41.4277 165.26 41.1757 164.742C40.9237 164.219 40.7977 163.624 40.7977 162.957C40.7977 162.229 40.9213 161.603 41.1687 161.081C41.4207 160.558 41.766 160.157 42.2047 159.877C42.648 159.597 43.1613 159.457 43.7447 159.457C44.2347 159.457 44.65 159.557 44.9907 159.758C45.336 159.954 45.6137 160.222 45.8237 160.563C46.0337 160.903 46.1807 161.288 46.2647 161.718C46.3533 162.147 46.3883 162.59 46.3697 163.048H41.4627V162.488H45.8727L45.5507 162.698C45.5647 162.394 45.546 162.093 45.4947 161.795C45.448 161.491 45.357 161.214 45.2217 160.962C45.091 160.71 44.9067 160.507 44.6687 160.353C44.4307 160.199 44.125 160.122 43.7517 160.122C43.2757 160.122 42.879 160.245 42.5617 160.493C42.2443 160.735 42.0063 161.053 41.8477 161.445C41.6937 161.832 41.6167 162.247 41.6167 162.691V163.034C41.6167 163.542 41.6937 164 41.8477 164.406C42.0063 164.812 42.242 165.134 42.5547 165.372C42.872 165.61 43.2687 165.729 43.7447 165.729C44.2347 165.729 44.6337 165.61 44.9417 165.372C45.2543 165.129 45.441 164.774 45.5017 164.308H46.3697C46.2997 164.751 46.1433 165.129 45.9007 165.442C45.6627 165.754 45.3593 165.995 44.9907 166.163C44.622 166.326 44.2067 166.408 43.7447 166.408ZM53.158 159.604H53.97V166.254H53.158V159.604ZM48.37 159.604H49.182V163.776C49.182 164.392 49.3314 164.863 49.63 165.19C49.9334 165.512 50.3697 165.673 50.939 165.673C51.4057 165.673 51.8047 165.547 52.136 165.295C52.4674 165.043 52.7194 164.704 52.892 164.28C53.0694 163.855 53.158 163.386 53.158 162.873H53.543C53.543 163.582 53.4334 164.2 53.214 164.728C52.9947 165.255 52.6844 165.663 52.283 165.953C51.8817 166.237 51.4057 166.38 50.855 166.38C50.3417 166.38 49.8984 166.284 49.525 166.093C49.1564 165.901 48.8717 165.617 48.671 165.239C48.4704 164.856 48.37 164.382 48.37 163.818V159.604ZM62.3521 166.408C61.7734 166.408 61.2624 166.261 60.8191 165.967C60.3804 165.668 60.0351 165.26 59.7831 164.742C59.5311 164.219 59.4051 163.624 59.4051 162.957C59.4051 162.229 59.5288 161.603 59.7761 161.081C60.0281 160.558 60.3734 160.157 60.8121 159.877C61.2554 159.597 61.7688 159.457 62.3521 159.457C62.8421 159.457 63.2574 159.557 63.5981 159.758C63.9434 159.954 64.2211 160.222 64.4311 160.563C64.6411 160.903 64.7881 161.288 64.8721 161.718C64.9608 162.147 64.9958 162.59 64.9771 163.048H60.0701V162.488H64.4801L64.1581 162.698C64.1721 162.394 64.1534 162.093 64.1021 161.795C64.0554 161.491 63.9644 161.214 63.8291 160.962C63.6984 160.71 63.5141 160.507 63.2761 160.353C63.0381 160.199 62.7324 160.122 62.3591 160.122C61.8831 160.122 61.4864 160.245 61.1691 160.493C60.8518 160.735 60.6138 161.053 60.4551 161.445C60.3011 161.832 60.2241 162.247 60.2241 162.691V163.034C60.2241 163.542 60.3011 164 60.4551 164.406C60.6138 164.812 60.8494 165.134 61.1621 165.372C61.4794 165.61 61.8761 165.729 62.3521 165.729C62.8421 165.729 63.2411 165.61 63.5491 165.372C63.8618 165.129 64.0484 164.774 64.1091 164.308H64.9771C64.9071 164.751 64.7508 165.129 64.5081 165.442C64.2701 165.754 63.9668 165.995 63.5981 166.163C63.2294 166.326 62.8141 166.408 62.3521 166.408ZM69.5464 166.408C68.9024 166.408 68.3704 166.314 67.9504 166.128C67.5351 165.941 67.2224 165.689 67.0124 165.372C66.8024 165.054 66.6881 164.7 66.6694 164.308H67.4814C67.5094 164.779 67.6984 165.136 68.0484 165.379C68.4031 165.617 68.8861 165.736 69.4974 165.736C69.8148 165.736 70.1088 165.684 70.3794 165.582C70.6501 165.474 70.8671 165.33 71.0304 165.148C71.1984 164.961 71.2824 164.751 71.2824 164.518C71.2824 164.219 71.1728 163.986 70.9534 163.818C70.7341 163.65 70.3864 163.505 69.9104 163.384L68.6994 163.02C68.1161 162.852 67.6704 162.614 67.3624 162.306C67.0544 161.993 66.9004 161.62 66.9004 161.186C66.9004 160.663 67.1268 160.245 67.5794 159.933C68.0321 159.615 68.6224 159.457 69.3504 159.457C70.1438 159.457 70.7621 159.613 71.2054 159.926C71.6488 160.238 71.8821 160.628 71.9054 161.095H71.0654C71.0141 160.763 70.8438 160.518 70.5544 160.36C70.2651 160.196 69.8638 160.115 69.3504 160.115C68.8418 160.115 68.4474 160.231 68.1674 160.465C67.8874 160.698 67.7474 160.952 67.7474 161.228C67.7474 161.76 68.2048 162.149 69.1194 162.397L70.3094 162.768C70.9068 162.936 71.3618 163.16 71.6744 163.44C71.9918 163.72 72.1504 164.079 72.1504 164.518C72.1504 164.84 72.0454 165.145 71.8354 165.435C71.6301 165.724 71.3338 165.96 70.9464 166.142C70.5591 166.319 70.0924 166.408 69.5464 166.408ZM77.3992 166.408C76.9139 166.408 76.4869 166.293 76.1182 166.065C75.7542 165.836 75.4696 165.507 75.2642 165.078C75.0636 164.648 74.9632 164.133 74.9632 163.531H75.3552C75.3552 164.002 75.4486 164.399 75.6352 164.721C75.8266 165.038 76.0716 165.278 76.3702 165.442C76.6736 165.605 76.9932 165.687 77.3292 165.687C77.6979 165.687 78.0456 165.579 78.3722 165.365C78.6989 165.15 78.9649 164.837 79.1702 164.427C79.3756 164.011 79.4782 163.507 79.4782 162.915C79.4782 162.331 79.3802 161.837 79.1842 161.431C78.9882 161.02 78.7269 160.707 78.4002 160.493C78.0782 160.273 77.7236 160.164 77.3362 160.164C77.0002 160.164 76.6806 160.248 76.3772 160.416C76.0739 160.584 75.8266 160.831 75.6352 161.158C75.4486 161.48 75.3552 161.881 75.3552 162.362H74.9632C74.9632 161.746 75.0682 161.221 75.2782 160.787C75.4929 160.353 75.7846 160.024 76.1532 159.8C76.5219 159.571 76.9396 159.457 77.4062 159.457C77.9242 159.457 78.4049 159.597 78.8482 159.877C79.2916 160.152 79.6486 160.549 79.9192 161.067C80.1899 161.58 80.3252 162.196 80.3252 162.915C80.3252 163.643 80.1876 164.268 79.9122 164.791C79.6416 165.313 79.2822 165.715 78.8342 165.995C78.3909 166.27 77.9126 166.408 77.3992 166.408ZM74.5432 169.53V159.611H75.2292L75.3552 161.123V169.53H74.5432ZM86.608 166.254L86.503 164.875V161.935C86.503 161.267 86.3583 160.794 86.069 160.514C85.7796 160.234 85.3666 160.094 84.83 160.094C84.5313 160.094 84.2536 160.138 83.997 160.227C83.7403 160.311 83.535 160.448 83.381 160.64C83.227 160.826 83.15 161.074 83.15 161.382H82.226C82.226 160.91 82.3426 160.535 82.576 160.255C82.8093 159.97 83.122 159.767 83.514 159.646C83.9106 159.52 84.3493 159.457 84.83 159.457C85.306 159.457 85.7306 159.541 86.104 159.709C86.4773 159.872 86.7713 160.138 86.986 160.507C87.2053 160.871 87.315 161.351 87.315 161.949V166.254H86.608ZM84.298 166.408C83.766 166.408 83.3273 166.312 82.982 166.121C82.6366 165.925 82.38 165.675 82.212 165.372C82.044 165.068 81.96 164.756 81.96 164.434C81.96 163.967 82.072 163.594 82.296 163.314C82.5246 163.034 82.828 162.831 83.206 162.705C83.5886 162.579 84.0063 162.516 84.459 162.516C84.7996 162.516 85.152 162.555 85.516 162.635C85.8846 162.709 86.237 162.814 86.573 162.95V163.496C86.2836 163.37 85.95 163.269 85.572 163.195C85.194 163.12 84.851 163.083 84.543 163.083C84.067 163.083 83.661 163.185 83.325 163.391C82.989 163.596 82.821 163.944 82.821 164.434C82.821 164.802 82.9446 165.115 83.192 165.372C83.444 165.628 83.8476 165.757 84.403 165.757C84.781 165.757 85.1286 165.666 85.446 165.484C85.7633 165.302 86.0176 165.075 86.209 164.805C86.405 164.534 86.503 164.261 86.503 163.986H86.706C86.706 164.41 86.6056 164.807 86.405 165.176C86.209 165.544 85.929 165.843 85.565 166.072C85.2056 166.296 84.7833 166.408 84.298 166.408ZM92.2598 166.408C91.7418 166.408 91.2565 166.265 90.8038 165.981C90.3511 165.696 89.9848 165.292 89.7048 164.77C89.4295 164.247 89.2918 163.629 89.2918 162.915C89.2918 162.191 89.4295 161.573 89.7048 161.06C89.9848 160.542 90.3511 160.145 90.8038 159.87C91.2565 159.594 91.7418 159.457 92.2598 159.457C92.6051 159.457 92.9178 159.508 93.1978 159.611C93.4825 159.709 93.7321 159.849 93.9468 160.031C94.1661 160.208 94.3528 160.416 94.5068 160.654C94.6608 160.887 94.7798 161.139 94.8638 161.41L94.0168 161.536C93.8815 161.106 93.6598 160.77 93.3518 160.528C93.0438 160.285 92.6751 160.164 92.2458 160.164C91.8818 160.164 91.5388 160.269 91.2168 160.479C90.8995 160.689 90.6405 160.999 90.4398 161.41C90.2391 161.816 90.1388 162.317 90.1388 162.915C90.1388 163.456 90.2275 163.937 90.4048 164.357C90.5868 164.772 90.8365 165.099 91.1538 165.337C91.4711 165.57 91.8351 165.687 92.2458 165.687C92.8105 165.687 93.2468 165.547 93.5548 165.267C93.8628 164.987 94.0168 164.592 94.0168 164.084H94.8638C94.8638 164.541 94.7541 164.945 94.5348 165.295C94.3155 165.645 94.0098 165.918 93.6178 166.114C93.2258 166.31 92.7731 166.408 92.2598 166.408ZM90.9088 168.697L91.0768 168.298C91.4361 168.498 91.7605 168.613 92.0498 168.641C92.3438 168.669 92.5771 168.631 92.7498 168.529C92.9271 168.431 93.0205 168.295 93.0298 168.123C93.0438 167.945 92.9738 167.791 92.8198 167.661C92.6658 167.53 92.4745 167.42 92.2458 167.332C92.0218 167.243 91.8025 167.175 91.5878 167.129L92.0638 165.932L92.6378 165.967L92.1828 167.108L91.9098 166.723C92.3158 166.825 92.6611 166.942 92.9458 167.073C93.2351 167.208 93.4521 167.362 93.5968 167.535C93.7461 167.712 93.8115 167.917 93.7928 168.151C93.7741 168.417 93.6621 168.627 93.4568 168.781C93.2515 168.939 92.9971 169.042 92.6938 169.089C92.3905 169.135 92.0778 169.126 91.7558 169.061C91.4385 168.995 91.1561 168.874 90.9088 168.697ZM99.4389 166.408C98.8462 166.408 98.3235 166.275 97.8709 166.009C97.4182 165.743 97.0612 165.351 96.7999 164.833C96.5432 164.315 96.4149 163.68 96.4149 162.929C96.4149 162.177 96.5432 161.545 96.7999 161.032C97.0612 160.514 97.4182 160.122 97.8709 159.856C98.3235 159.59 98.8462 159.457 99.4389 159.457C100.032 159.457 100.554 159.59 101.007 159.856C101.46 160.122 101.814 160.514 102.071 161.032C102.328 161.545 102.456 162.177 102.456 162.929C102.456 163.68 102.328 164.315 102.071 164.833C101.814 165.351 101.46 165.743 101.007 166.009C100.554 166.275 100.032 166.408 99.4389 166.408ZM99.4249 165.701C99.9149 165.701 100.323 165.586 100.65 165.358C100.977 165.124 101.219 164.8 101.378 164.385C101.541 163.969 101.623 163.484 101.623 162.929C101.623 162.093 101.443 161.421 101.084 160.913C100.729 160.404 100.186 160.15 99.4529 160.15C98.9629 160.15 98.5545 160.266 98.2279 160.5C97.9059 160.728 97.6632 161.053 97.4999 161.473C97.3412 161.888 97.2619 162.373 97.2619 162.929C97.2619 163.759 97.4392 164.429 97.7939 164.938C98.1532 165.446 98.6969 165.701 99.4249 165.701ZM110.2 166.408C109.672 166.408 109.185 166.265 108.737 165.981C108.293 165.691 107.939 165.285 107.673 164.763C107.407 164.24 107.274 163.622 107.274 162.908C107.274 162.194 107.404 161.58 107.666 161.067C107.932 160.549 108.282 160.152 108.716 159.877C109.154 159.597 109.633 159.457 110.151 159.457C110.631 159.457 111.058 159.576 111.432 159.814C111.805 160.047 112.097 160.383 112.307 160.822C112.517 161.256 112.622 161.778 112.622 162.39H112.251C112.251 161.9 112.155 161.491 111.964 161.165C111.777 160.833 111.532 160.584 111.229 160.416C110.925 160.248 110.601 160.164 110.256 160.164C109.878 160.164 109.525 160.273 109.199 160.493C108.877 160.712 108.615 161.025 108.415 161.431C108.219 161.837 108.121 162.329 108.121 162.908C108.121 163.491 108.219 163.99 108.415 164.406C108.611 164.821 108.872 165.138 109.199 165.358C109.525 165.577 109.88 165.687 110.263 165.687C110.589 165.687 110.904 165.603 111.208 165.435C111.511 165.267 111.761 165.019 111.957 164.693C112.153 164.361 112.251 163.955 112.251 163.475H112.622C112.622 164.091 112.514 164.618 112.3 165.057C112.09 165.495 111.8 165.831 111.432 166.065C111.068 166.293 110.657 166.408 110.2 166.408ZM112.37 166.254L112.251 164.742V156.734H113.056V166.254H112.37ZM118.229 166.408C117.65 166.408 117.139 166.261 116.696 165.967C116.257 165.668 115.912 165.26 115.66 164.742C115.408 164.219 115.282 163.624 115.282 162.957C115.282 162.229 115.406 161.603 115.653 161.081C115.905 160.558 116.25 160.157 116.689 159.877C117.132 159.597 117.646 159.457 118.229 159.457C118.719 159.457 119.134 159.557 119.475 159.758C119.82 159.954 120.098 160.222 120.308 160.563C120.518 160.903 120.665 161.288 120.749 161.718C120.838 162.147 120.873 162.59 120.854 163.048H115.947V162.488H120.357L120.035 162.698C120.049 162.394 120.03 162.093 119.979 161.795C119.932 161.491 119.841 161.214 119.706 160.962C119.575 160.71 119.391 160.507 119.153 160.353C118.915 160.199 118.609 160.122 118.236 160.122C117.76 160.122 117.363 160.245 117.046 160.493C116.729 160.735 116.491 161.053 116.332 161.445C116.178 161.832 116.101 162.247 116.101 162.691V163.034C116.101 163.542 116.178 164 116.332 164.406C116.491 164.812 116.726 165.134 117.039 165.372C117.356 165.61 117.753 165.729 118.229 165.729C118.719 165.729 119.118 165.61 119.426 165.372C119.739 165.129 119.925 164.774 119.986 164.308H120.854C120.784 164.751 120.628 165.129 120.385 165.442C120.147 165.754 119.844 165.995 119.475 166.163C119.106 166.326 118.691 166.408 118.229 166.408ZM128.531 166.408C128.013 166.408 127.528 166.265 127.075 165.981C126.623 165.696 126.256 165.292 125.976 164.77C125.701 164.247 125.563 163.629 125.563 162.915C125.563 162.191 125.701 161.573 125.976 161.06C126.256 160.542 126.623 160.145 127.075 159.87C127.528 159.594 128.013 159.457 128.531 159.457C128.877 159.457 129.189 159.508 129.469 159.611C129.754 159.709 130.004 159.849 130.218 160.031C130.438 160.208 130.624 160.416 130.778 160.654C130.932 160.887 131.051 161.139 131.135 161.41L130.288 161.536C130.153 161.106 129.931 160.77 129.623 160.528C129.315 160.285 128.947 160.164 128.517 160.164C128.153 160.164 127.81 160.269 127.488 160.479C127.171 160.689 126.912 160.999 126.711 161.41C126.511 161.816 126.41 162.317 126.41 162.915C126.41 163.456 126.499 163.937 126.676 164.357C126.858 164.772 127.108 165.099 127.425 165.337C127.743 165.57 128.107 165.687 128.517 165.687C129.082 165.687 129.518 165.547 129.826 165.267C130.134 164.987 130.288 164.592 130.288 164.084H131.135C131.135 164.541 131.026 164.945 130.806 165.295C130.587 165.645 130.281 165.918 129.889 166.114C129.497 166.31 129.045 166.408 128.531 166.408ZM135.71 166.408C135.118 166.408 134.595 166.275 134.142 166.009C133.69 165.743 133.333 165.351 133.071 164.833C132.815 164.315 132.686 163.68 132.686 162.929C132.686 162.177 132.815 161.545 133.071 161.032C133.333 160.514 133.69 160.122 134.142 159.856C134.595 159.59 135.118 159.457 135.71 159.457C136.303 159.457 136.826 159.59 137.278 159.856C137.731 160.122 138.086 160.514 138.342 161.032C138.599 161.545 138.727 162.177 138.727 162.929C138.727 163.68 138.599 164.315 138.342 164.833C138.086 165.351 137.731 165.743 137.278 166.009C136.826 166.275 136.303 166.408 135.71 166.408ZM135.696 165.701C136.186 165.701 136.595 165.586 136.921 165.358C137.248 165.124 137.491 164.8 137.649 164.385C137.813 163.969 137.894 163.484 137.894 162.929C137.894 162.093 137.715 161.421 137.355 160.913C137.001 160.404 136.457 160.15 135.724 160.15C135.234 160.15 134.826 160.266 134.499 160.5C134.177 160.728 133.935 161.053 133.771 161.473C133.613 161.888 133.533 162.373 133.533 162.929C133.533 163.759 133.711 164.429 134.065 164.938C134.425 165.446 134.968 165.701 135.696 165.701ZM150.419 166.254V162.341C150.419 161.636 150.251 161.097 149.915 160.724C149.579 160.35 149.12 160.164 148.536 160.164C147.874 160.164 147.372 160.416 147.031 160.92C146.691 161.419 146.52 162.086 146.52 162.922H146.107C146.107 162.376 146.163 161.888 146.275 161.459C146.387 161.025 146.553 160.661 146.772 160.367C146.992 160.068 147.262 159.842 147.584 159.688C147.911 159.534 148.287 159.457 148.711 159.457C149.225 159.457 149.668 159.571 150.041 159.8C150.419 160.028 150.711 160.36 150.916 160.794C151.122 161.223 151.224 161.739 151.224 162.341V166.254H150.419ZM140.92 166.254V159.611H141.606L141.704 161.046C141.905 160.546 142.199 160.157 142.586 159.877C142.974 159.597 143.447 159.457 144.007 159.457C144.521 159.457 144.964 159.571 145.337 159.8C145.715 160.028 146.007 160.36 146.212 160.794C146.418 161.223 146.52 161.739 146.52 162.341V166.254H145.729V162.341C145.729 161.636 145.559 161.097 145.218 160.724C144.882 160.35 144.418 160.164 143.825 160.164C143.391 160.164 143.016 160.283 142.698 160.521C142.386 160.759 142.145 161.092 141.977 161.522C141.814 161.951 141.732 162.453 141.732 163.027V166.254H140.92ZM156.778 166.408C156.293 166.408 155.866 166.293 155.497 166.065C155.133 165.836 154.848 165.507 154.643 165.078C154.442 164.648 154.342 164.133 154.342 163.531H154.734C154.734 164.002 154.827 164.399 155.014 164.721C155.205 165.038 155.45 165.278 155.749 165.442C156.052 165.605 156.372 165.687 156.708 165.687C157.077 165.687 157.424 165.579 157.751 165.365C158.078 165.15 158.344 164.837 158.549 164.427C158.754 164.011 158.857 163.507 158.857 162.915C158.857 162.331 158.759 161.837 158.563 161.431C158.367 161.02 158.106 160.707 157.779 160.493C157.457 160.273 157.102 160.164 156.715 160.164C156.379 160.164 156.059 160.248 155.756 160.416C155.453 160.584 155.205 160.831 155.014 161.158C154.827 161.48 154.734 161.881 154.734 162.362H154.342C154.342 161.746 154.447 161.221 154.657 160.787C154.872 160.353 155.163 160.024 155.532 159.8C155.901 159.571 156.318 159.457 156.785 159.457C157.303 159.457 157.784 159.597 158.227 159.877C158.67 160.152 159.027 160.549 159.298 161.067C159.569 161.58 159.704 162.196 159.704 162.915C159.704 163.643 159.566 164.268 159.291 164.791C159.02 165.313 158.661 165.715 158.213 165.995C157.77 166.27 157.291 166.408 156.778 166.408ZM153.922 169.53V159.611H154.608L154.734 161.123V169.53H153.922ZM161.934 166.254V159.604H162.746V166.254H161.934ZM162.445 163.209C162.445 162.378 162.517 161.687 162.662 161.137C162.807 160.586 163.031 160.173 163.334 159.898C163.637 159.622 164.025 159.485 164.496 159.485C164.659 159.485 164.809 159.496 164.944 159.52C165.084 159.543 165.224 159.58 165.364 159.632L165.273 160.423C165.138 160.371 164.988 160.329 164.825 160.297C164.662 160.259 164.519 160.241 164.398 160.241C163.983 160.241 163.654 160.367 163.411 160.619C163.173 160.871 163.003 161.221 162.9 161.669C162.797 162.112 162.746 162.625 162.746 163.209H162.445ZM170.827 166.254L170.722 164.875V161.935C170.722 161.267 170.577 160.794 170.288 160.514C169.998 160.234 169.585 160.094 169.049 160.094C168.75 160.094 168.472 160.138 168.216 160.227C167.959 160.311 167.754 160.448 167.6 160.64C167.446 160.826 167.369 161.074 167.369 161.382H166.445C166.445 160.91 166.561 160.535 166.795 160.255C167.028 159.97 167.341 159.767 167.733 159.646C168.129 159.52 168.568 159.457 169.049 159.457C169.525 159.457 169.949 159.541 170.323 159.709C170.696 159.872 170.99 160.138 171.205 160.507C171.424 160.871 171.534 161.351 171.534 161.949V166.254H170.827ZM168.517 166.408C167.985 166.408 167.546 166.312 167.201 166.121C166.855 165.925 166.599 165.675 166.431 165.372C166.263 165.068 166.179 164.756 166.179 164.434C166.179 163.967 166.291 163.594 166.515 163.314C166.743 163.034 167.047 162.831 167.425 162.705C167.807 162.579 168.225 162.516 168.678 162.516C169.018 162.516 169.371 162.555 169.735 162.635C170.103 162.709 170.456 162.814 170.792 162.95V163.496C170.502 163.37 170.169 163.269 169.791 163.195C169.413 163.12 169.07 163.083 168.762 163.083C168.286 163.083 167.88 163.185 167.544 163.391C167.208 163.596 167.04 163.944 167.04 164.434C167.04 164.802 167.163 165.115 167.411 165.372C167.663 165.628 168.066 165.757 168.622 165.757C169 165.757 169.347 165.666 169.665 165.484C169.982 165.302 170.236 165.075 170.428 164.805C170.624 164.534 170.722 164.261 170.722 163.986H170.925C170.925 164.41 170.824 164.807 170.624 165.176C170.428 165.544 170.148 165.843 169.784 166.072C169.424 166.296 169.002 166.408 168.517 166.408ZM179.67 166.408C179.092 166.408 178.581 166.261 178.137 165.967C177.699 165.668 177.353 165.26 177.101 164.742C176.849 164.219 176.723 163.624 176.723 162.957C176.723 162.229 176.847 161.603 177.094 161.081C177.346 160.558 177.692 160.157 178.13 159.877C178.574 159.597 179.087 159.457 179.67 159.457C180.16 159.457 180.576 159.557 180.916 159.758C181.262 159.954 181.539 160.222 181.749 160.563C181.959 160.903 182.106 161.288 182.19 161.718C182.279 162.147 182.314 162.59 182.295 163.048H177.388V162.488H181.798L181.476 162.698C181.49 162.394 181.472 162.093 181.42 161.795C181.374 161.491 181.283 161.214 181.147 160.962C181.017 160.71 180.832 160.507 180.594 160.353C180.356 160.199 180.051 160.122 179.677 160.122C179.201 160.122 178.805 160.245 178.487 160.493C178.17 160.735 177.932 161.053 177.773 161.445C177.619 161.832 177.542 162.247 177.542 162.691V163.034C177.542 163.542 177.619 164 177.773 164.406C177.932 164.812 178.168 165.134 178.48 165.372C178.798 165.61 179.194 165.729 179.67 165.729C180.16 165.729 180.559 165.61 180.867 165.372C181.18 165.129 181.367 164.774 181.427 164.308H182.295C182.225 164.751 182.069 165.129 181.826 165.442C181.588 165.754 181.285 165.995 180.916 166.163C180.548 166.326 180.132 166.408 179.67 166.408ZM186.557 159.611H187.474L189.812 165.554H189.644L191.982 159.611H192.899L190.155 166.254H189.301L186.557 159.611ZM196.87 166.408C196.291 166.408 195.78 166.261 195.337 165.967C194.898 165.668 194.553 165.26 194.301 164.742C194.049 164.219 193.923 163.624 193.923 162.957C193.923 162.229 194.046 161.603 194.294 161.081C194.546 160.558 194.891 160.157 195.33 159.877C195.773 159.597 196.286 159.457 196.87 159.457C197.36 159.457 197.775 159.557 198.116 159.758C198.461 159.954 198.739 160.222 198.949 160.563C199.159 160.903 199.306 161.288 199.39 161.718C199.478 162.147 199.513 162.59 199.495 163.048H194.588V162.488H198.998L198.676 162.698C198.69 162.394 198.671 162.093 198.62 161.795C198.573 161.491 198.482 161.214 198.347 160.962C198.216 160.71 198.032 160.507 197.794 160.353C197.556 160.199 197.25 160.122 196.877 160.122C196.401 160.122 196.004 160.245 195.687 160.493C195.369 160.735 195.131 161.053 194.973 161.445C194.819 161.832 194.742 162.247 194.742 162.691V163.034C194.742 163.542 194.819 164 194.973 164.406C195.131 164.812 195.367 165.134 195.68 165.372C195.997 165.61 196.394 165.729 196.87 165.729C197.36 165.729 197.759 165.61 198.067 165.372C198.379 165.129 198.566 164.774 198.627 164.308H199.495C199.425 164.751 199.268 165.129 199.026 165.442C198.788 165.754 198.484 165.995 198.116 166.163C197.747 166.326 197.332 166.408 196.87 166.408ZM206.528 166.254V162.341C206.528 161.636 206.358 161.097 206.017 160.724C205.681 160.35 205.217 160.164 204.624 160.164C204.19 160.164 203.814 160.283 203.497 160.521C203.184 160.759 202.944 161.092 202.776 161.522C202.613 161.951 202.531 162.453 202.531 163.027H202.174C202.174 162.299 202.272 161.669 202.468 161.137C202.669 160.6 202.963 160.187 203.35 159.898C203.742 159.604 204.227 159.457 204.806 159.457C205.319 159.457 205.763 159.571 206.136 159.8C206.514 160.028 206.806 160.36 207.011 160.794C207.216 161.223 207.319 161.739 207.319 162.341V166.254H206.528ZM201.719 166.254V159.611H202.405L202.531 161.249V166.254H201.719ZM212.37 166.408C211.842 166.408 211.355 166.265 210.907 165.981C210.463 165.691 210.109 165.285 209.843 164.763C209.577 164.24 209.444 163.622 209.444 162.908C209.444 162.194 209.574 161.58 209.836 161.067C210.102 160.549 210.452 160.152 210.886 159.877C211.324 159.597 211.803 159.457 212.321 159.457C212.801 159.457 213.228 159.576 213.602 159.814C213.975 160.047 214.267 160.383 214.477 160.822C214.687 161.256 214.792 161.778 214.792 162.39H214.421C214.421 161.9 214.325 161.491 214.134 161.165C213.947 160.833 213.702 160.584 213.399 160.416C213.095 160.248 212.771 160.164 212.426 160.164C212.048 160.164 211.695 160.273 211.369 160.493C211.047 160.712 210.785 161.025 210.585 161.431C210.389 161.837 210.291 162.329 210.291 162.908C210.291 163.491 210.389 163.99 210.585 164.406C210.781 164.821 211.042 165.138 211.369 165.358C211.695 165.577 212.05 165.687 212.433 165.687C212.759 165.687 213.074 165.603 213.378 165.435C213.681 165.267 213.931 165.019 214.127 164.693C214.323 164.361 214.421 163.955 214.421 163.475H214.792C214.792 164.091 214.684 164.618 214.47 165.057C214.26 165.495 213.97 165.831 213.602 166.065C213.238 166.293 212.827 166.408 212.37 166.408ZM214.54 166.254L214.421 164.742V156.734H215.226V166.254H214.54ZM222.233 166.254L222.128 164.875V161.935C222.128 161.267 221.983 160.794 221.694 160.514C221.405 160.234 220.992 160.094 220.455 160.094C220.156 160.094 219.879 160.138 219.622 160.227C219.365 160.311 219.16 160.448 219.006 160.64C218.852 160.826 218.775 161.074 218.775 161.382H217.851C217.851 160.91 217.968 160.535 218.201 160.255C218.434 159.97 218.747 159.767 219.139 159.646C219.536 159.52 219.974 159.457 220.455 159.457C220.931 159.457 221.356 159.541 221.729 159.709C222.102 159.872 222.396 160.138 222.611 160.507C222.83 160.871 222.94 161.351 222.94 161.949V166.254H222.233ZM219.923 166.408C219.391 166.408 218.952 166.312 218.607 166.121C218.262 165.925 218.005 165.675 217.837 165.372C217.669 165.068 217.585 164.756 217.585 164.434C217.585 163.967 217.697 163.594 217.921 163.314C218.15 163.034 218.453 162.831 218.831 162.705C219.214 162.579 219.631 162.516 220.084 162.516C220.425 162.516 220.777 162.555 221.141 162.635C221.51 162.709 221.862 162.814 222.198 162.95V163.496C221.909 163.37 221.575 163.269 221.197 163.195C220.819 163.12 220.476 163.083 220.168 163.083C219.692 163.083 219.286 163.185 218.95 163.391C218.614 163.596 218.446 163.944 218.446 164.434C218.446 164.802 218.57 165.115 218.817 165.372C219.069 165.628 219.473 165.757 220.028 165.757C220.406 165.757 220.754 165.666 221.071 165.484C221.388 165.302 221.643 165.075 221.834 164.805C222.03 164.534 222.128 164.261 222.128 163.986H222.331C222.331 164.41 222.231 164.807 222.03 165.176C221.834 165.544 221.554 165.843 221.19 166.072C220.831 166.296 220.408 166.408 219.923 166.408Z" fill="#5F5B62"/>
</svg>
